<svg width="35" height="35" viewBox="0 0 35 35" fill="none" xmlns="http://www.w3.org/2000/svg">
<path d="M16.345 32.69C7.33378 32.69 0 25.3562 0 16.345C0 7.33378 7.33378 0 16.345 0C25.3562 0 32.69 7.33378 32.69 16.345C32.69 25.3562 25.3562 32.69 16.345 32.69ZM16.345 4.29104C9.70036 4.29104 4.29104 9.70036 4.29104 16.345C4.29104 22.9896 9.70036 28.3989 16.345 28.3989C22.9896 28.3989 28.3989 22.9896 28.3989 16.345C28.3989 9.70036 22.9896 4.29104 16.345 4.29104Z" fill="#FF6F16"/>
<path d="M14.8366 17.8013L31.1296 34.1853L34.1723 31.2336L17.9574 14.8886L14.8366 17.8013Z" fill="#883086"/>
<path d="M26.3444 23.2497C24.1599 26.3704 20.545 28.4119 16.462 28.4119C12.8731 28.4119 9.64833 26.8385 7.43779 24.3419L6.44955 25.9283L7.38578 24.4069C6.74863 23.5747 6.37153 22.5345 6.37153 21.4032C6.37153 18.6465 8.60808 16.41 11.3648 16.41C12.7431 16.41 13.9784 16.9691 14.8886 17.8664C15.6688 17.1382 16.9691 15.9549 18.0614 14.9797C16.371 13.2242 13.9914 12.119 11.3648 12.119C6.2415 12.093 2.08049 16.254 2.08049 21.3772C2.08049 24.0559 3.22477 26.4745 5.05822 28.1779L5.11023 28.0998C8.04894 30.9475 12.0539 32.703 16.462 32.703C21.7283 32.703 26.4354 30.1934 29.4261 26.3054L26.3444 23.2497Z" fill="#00A39C"/>
</svg>
